<svg width="27" height="27" viewBox="0 0 27 27" fill="none" xmlns="http://www.w3.org/2000/svg">
<path d="M13.5 0.0265198C20.6797 0.0265198 26.5 5.84682 26.5 13.0265C26.5 20.2062 20.6797 26.0265 13.5 26.0265C6.3204 26.0264 0.500033 20.2061 0.5 13.0265C0.5 5.84688 6.32038 0.0266187 13.5 0.0265198ZM14.4111 6.0441C14.0567 5.25998 12.9432 5.25989 12.5889 6.0441L10.8555 9.88199C10.7553 10.1038 10.5773 10.2818 10.3555 10.382L6.51758 12.1154C5.7337 12.4699 5.73367 13.5832 6.51758 13.9377L10.3555 15.6711C10.5773 15.7713 10.7553 15.9492 10.8555 16.1711L12.5889 20.0089C12.9433 20.793 14.0566 20.7929 14.4111 20.0089L16.1445 16.1711C16.2447 15.9492 16.4227 15.7713 16.6445 15.6711L20.4824 13.9377C21.2667 13.5833 21.2667 12.4698 20.4824 12.1154L16.6445 10.382C16.4227 10.2818 16.2447 10.1038 16.1445 9.88199L14.4111 6.0441Z" fill="url(#paint0_linear_91_17)"/>
<defs>
<linearGradient id="paint0_linear_91_17" x1="13.5" y1="0.0265198" x2="13.5" y2="26.0265" gradientUnits="userSpaceOnUse">
<stop stop-color="#E7E7E7"/>
<stop offset="1" stop-color="#646464"/>
</linearGradient>
</defs>
</svg>
